<svg width="40" height="40" viewBox="0 0 40 40" fill="none" xmlns="http://www.w3.org/2000/svg">
<rect x="0.5" y="0.5" width="39" height="39" rx="15.5" fill="white" stroke="white"/>
<path fill-rule="evenodd" clip-rule="evenodd" d="M18.0691 18.6903C18.3782 18.6594 18.6538 18.885 18.6847 19.1941L19.0597 22.9441C19.0907 23.2532 18.8651 23.5289 18.556 23.5598C18.2469 23.5907 17.9712 23.3652 17.9403 23.056L17.5653 19.306C17.5344 18.9969 17.76 18.7212 18.0691 18.6903Z" fill="#050B20"/>
<path fill-rule="evenodd" clip-rule="evenodd" d="M21.931 18.6903C22.2401 18.7212 22.4656 18.9969 22.4347 19.306L22.0597 23.056C22.0288 23.3652 21.7532 23.5907 21.444 23.5598C21.135 23.5289 20.9094 23.2532 20.9403 22.9441L21.3153 19.1941C21.3462 18.885 21.6219 18.6594 21.931 18.6903Z" fill="#050B20"/>
<path fill-rule="evenodd" clip-rule="evenodd" d="M18.5929 11.9375H21.129C21.2913 11.9374 21.4327 11.9373 21.5662 11.9586C22.0936 12.0429 22.5501 12.3719 22.7968 12.8456C22.8592 12.9655 22.9039 13.0997 22.9551 13.2537L23.0388 13.5049C23.053 13.5474 23.057 13.5594 23.0605 13.5689C23.1918 13.932 23.5323 14.1774 23.9183 14.1872C23.9284 14.1875 23.9409 14.1875 23.9859 14.1875H26.2359C26.5466 14.1875 26.7984 14.4394 26.7984 14.75C26.7984 15.0607 26.5466 15.3125 26.2359 15.3125H13.4858C13.1752 15.3125 12.9233 15.0607 12.9233 14.75C12.9233 14.4394 13.1752 14.1875 13.4858 14.1875H15.7359C15.7809 14.1875 15.7934 14.1875 15.8035 14.1872C16.1895 14.1774 16.53 13.932 16.6614 13.5689C16.6648 13.5594 16.6688 13.5476 16.683 13.5049L16.7667 13.2537C16.818 13.0997 16.8626 12.9655 16.925 12.8456C17.1717 12.3719 17.6282 12.0429 18.1557 11.9586C18.2892 11.9373 18.4306 11.9374 18.5929 11.9375ZM17.617 14.1875C17.6556 14.1118 17.6898 14.033 17.7193 13.9516C17.7282 13.9269 17.737 13.9006 17.7483 13.8668L17.8231 13.6422C17.8915 13.4371 17.9072 13.3952 17.9228 13.3652C18.0051 13.2073 18.1572 13.0976 18.3331 13.0696C18.3665 13.0642 18.4111 13.0625 18.6274 13.0625H21.0945C21.3107 13.0625 21.3553 13.0642 21.3888 13.0696C21.5646 13.0976 21.7168 13.2073 21.799 13.3652C21.8146 13.3952 21.8303 13.437 21.8987 13.6422L21.9735 13.8666L22.0026 13.9516C22.032 14.033 22.0663 14.1118 22.1049 14.1875H17.617Z" fill="#050B20"/>
<path fill-rule="evenodd" clip-rule="evenodd" d="M14.8376 16.8138C15.1476 16.7931 15.4156 17.0276 15.4363 17.3376L15.7812 22.5119C15.8486 23.5228 15.8966 24.2262 16.0021 24.7554C16.1043 25.2688 16.2471 25.5405 16.4521 25.7323C16.6572 25.9241 16.9378 26.0485 17.4568 26.1164C17.9919 26.1864 18.6969 26.1875 19.71 26.1875H20.29C21.3031 26.1875 22.0081 26.1864 22.5432 26.1164C23.0622 26.0485 23.3428 25.9241 23.5479 25.7323C23.7529 25.5405 23.8957 25.2688 23.998 24.7554C24.1034 24.2262 24.1514 23.5228 24.2188 22.5119L24.5638 17.3376C24.5844 17.0276 24.8524 16.7931 25.1624 16.8138C25.4724 16.8344 25.7069 17.1025 25.6863 17.4124L25.3387 22.6262C25.2745 23.5883 25.2228 24.3654 25.1013 24.9752C24.975 25.6092 24.7602 26.1388 24.3165 26.5538C23.8728 26.9689 23.3301 27.148 22.6891 27.2319C22.0726 27.3125 21.2938 27.3125 20.3296 27.3125H19.6705C18.7063 27.3125 17.9274 27.3125 17.3109 27.2319C16.6699 27.148 16.1273 26.9689 15.6836 26.5538C15.2399 26.1388 15.025 25.6092 14.8988 24.9752C14.7773 24.3654 14.7255 23.5883 14.6614 22.6262L14.3138 17.4124C14.2931 17.1025 14.5276 16.8344 14.8376 16.8138Z" fill="#050B20"/>
</svg>
